<?xml version="1.0" encoding="utf-8"?>
<!-- Generator: Adobe Illustrator 24.2.1, SVG Export Plug-In . SVG Version: 6.00 Build 0)  -->
<svg version="1.1" id="Layer_1" xmlns="http://www.w3.org/2000/svg" xmlns:xlink="http://www.w3.org/1999/xlink" x="0px" y="0px"
	 viewBox="0 0 2673.4 2007.1" style="enable-background:new 0 0 2673.4 2007.1;" xml:space="preserve">
<style type="text/css">
	.st0{fill:url(#Path_3572_2_);}
	.st1{fill:none;stroke:#E0EAED;stroke-miterlimit:10;}
	.st2{fill:#CBDB2A;}
	.st3{clip-path:url(#SVGID_2_);}
	.st4{fill:none;stroke:#E6F3EB;stroke-width:4;stroke-miterlimit:10;}
	.st5{fill:#1A8A43;}
	.st6{clip-path:url(#SVGID_4_);}
	.st7{fill:none;stroke:#84C0B1;stroke-width:2;stroke-miterlimit:10;}
	.st8{fill:none;stroke:#84C0B1;stroke-miterlimit:10;}
	.st9{fill:#6AC7B7;}
	.st10{clip-path:url(#SVGID_6_);}
	.st11{fill:none;stroke:#E6F3EB;stroke-width:6;stroke-miterlimit:10;}
	.st12{fill:#3E6731;}
	.st13{clip-path:url(#SVGID_8_);}
	.st14{fill:#C8E8E2;}
	.st15{fill:#5CB097;}
	.st16{fill:#FFFFFF;}
	.st17{opacity:0.25;fill:#A1B0A1;enable-background:new    ;}
	.st18{fill:#3E2A70;}
	.st19{fill:none;stroke:#0E2E4E;stroke-miterlimit:10;}
	.st20{fill:#26194C;}
	.st21{fill:#F8A27B;}
	.st22{fill:#F57E2A;}
	.st23{fill:#F89B47;}
	.st24{clip-path:url(#SVGID_10_);}
	.st25{fill:#74B8D4;}
	.st26{fill:#E6795D;}
	.st27{fill:#B8D1CE;}
	.st28{fill:#16B3A8;}
	.st29{fill:#57666B;}
	.st30{fill:#DF2F7F;}
	.st31{fill:#EE4799;}
	.st32{clip-path:url(#SVGID_12_);}
	.st33{fill:#C22372;}
	.st34{fill-rule:evenodd;clip-rule:evenodd;fill:#008EC2;}
	.st35{fill:none;stroke:#FFFFFF;stroke-width:6;stroke-linecap:round;stroke-miterlimit:10;}
</style>
<g id="Group_4652_1_" transform="translate(-562.06 -640.815)">
	
		<linearGradient id="Path_3572_2_" gradientUnits="userSpaceOnUse" x1="-198.2984" y1="-574.8596" x2="-198.1985" y2="-571.9253" gradientTransform="matrix(695.4918 0 0 684.2825 139694.8438 393971.8438)">
		<stop  offset="0" style="stop-color:#198B43;stop-opacity:0.6"/>
		<stop  offset="0.764" style="stop-color:#16B3A8;stop-opacity:0.6"/>
		<stop  offset="1" style="stop-color:#16B3A8;stop-opacity:0.6"/>
	</linearGradient>
	<path id="Path_3572_1_" class="st0" d="M975.2,1431.1c-48.3,68.7-85.6,162.1-59.7,248.4c25.8,86,108.2,139,144.3,220.7
		c20.4,46.2,20.9,96.9,21.7,146.4c1,64.9-11.7,133.7,32.2,188.5c25.9,32.4,65.1,51.6,104.6,64.2c79.5,25.3,162.7,37.1,233.3,84.9
		c115.9,78.4,258.3,105.8,396.5,97.4c70.1-4.5,139.5-17.3,206.7-38c78-23.8,147.3-65.9,225.8-88.5
		c136.1-39.1,322.2-39.7,401.8-177.3c53.6-92.7,72.2-207.3,30.5-308.3c-19.8-48-57.7-84.7-79.2-131.9
		c-29.8-65.1-37.8-139.4-17.9-208.6c0.8-2.8,1.7-5.7,2.6-8.5c20.8-64.7,62.6-120.3,80-186.2c35.7-136-43.2-279.8-147-367.1
		c-43.1-36.3-91.3-66.5-143.8-83.8c-144.8-47.5-305.7,7.5-450.9-38.5c-111.4-35.3-202.9-126.9-316.4-153.4
		c-87.2-20.4-181.5,1.4-255.6,54.6c-74.1,53.2-127.9,136.6-152.4,228.3c-22.7,85-22,178.4-62.3,255.7
		c-34.5,66.1-98.3,101.8-150.2,149.7C1003,1395.2,988.2,1412.4,975.2,1431.1z"/>
	<path id="Path_3573_1_" class="st1" d="M1497,2355.9c-62.6-22.4-131.3-16-197.8-16.9s-170.4-11.8-195.4-85.6
		c-26.5-78.2,11.9-159.2,12.2-238.2c0.1-21.6-2.2-43.5-9.7-63.8c-34.9-95-151.7-118.1-192.6-212.7c-30.6-70.7-14.8-155.2,25.4-221
		c34.9-57.1,86.1-102,140.2-140.4c49.3-35,87-91.4,106.3-148.8c36.1-107.2,13.9-224.5,54.4-329c36.2-93.7,105.6-173,192.3-214.9
		c151.2-73.2,329.9-8.1,437.7,117.1c57.8,67.1,140.9,106.1,225.5,113c164.3,13.5,335.4-75.8,487.6,25
		c77.6,51.4,132.4,142.5,149.5,238.6c9.6,54.1,8.5,114.4-12.4,165.5c-20.6,50.3-56,91.3-86.5,134.8c-50.6,72.2-78.4,168.7-31,250
		c20.7,35.6,50.6,64.6,79,94.4c72.6,76.3,99.5,188.6,74.5,290.3c-28.4,115.5-118.3,191.3-235.5,205.8
		c-86.7,10.7-182.7-3.3-261.3,42.5"/>
	<g id="Group_4628_2_" transform="translate(1096.629 1127.009)">
		<path id="Path_3574_2_" class="st2" d="M1573.9,1058.8l104.4,28.6c179.7-115.9,337.8-257.7,427.1-302.5
			c-22.6-2-280.8-17.4-445.6-5.4L1627,851l-0.9-68.5c-17.4,1.9-33.2,4.1-46.9,6.9C1382.8,828.6,1138.6,930,1082,1144
			c-23.8,89.9,76.6,106.2,143,108.6c134.7,4.8,278.3-57.8,412.2-139.3L1573.9,1058.8z"/>
		<g>
			<g>
				<defs>
					<path id="SVGID_1_" d="M1573.9,1058.8l104.4,28.6c179.7-115.9,337.8-257.7,427.1-302.5c-22.6-2-280.8-17.4-445.6-5.4L1627,851
						l-0.9-68.5c-17.4,1.9-33.2,4.1-46.9,6.9C1382.8,828.6,1138.6,930,1082,1144c-23.8,89.9,76.6,106.2,143,108.6
						c134.7,4.8,278.3-57.8,412.2-139.3L1573.9,1058.8z"/>
				</defs>
				<clipPath id="SVGID_2_">
					<use xlink:href="#SVGID_1_"  style="overflow:visible;"/>
				</clipPath>
				<g id="Group_4627_2_" transform="translate(0 0)" class="st3">
					<g id="Group_4626_2_" transform="translate(-15.575 -32.451)">
						<path id="Path_3575_2_" class="st2" d="M1831.7,891.2c45.2,18.6,213.5,49.9,213.5,49.9"/>
						<g id="Group_4625_2_">
							<path id="Path_3576_2_" class="st4" d="M1053,1282.4c149.9-121.8,319.5-217.2,496.4-293.7
								c188.7-81.6,387.1-125.3,586.7-175.1"/>
							<path id="Path_3577_2_" class="st4" d="M1690.9,934.5c33.4-76.4,125.6-212.4,125.6-212.4"/>
							<path id="Path_3578_2_" class="st4" d="M1500.8,1010.3c0,0,31.6-132.3,93.9-261.2"/>
							<path id="Path_3579_2_" class="st4" d="M1575.2,977.9c66,35.9,254.7,120.5,329.8,127.9"/>
							<path id="Path_3580_2_" class="st4" d="M1333.6,1094.4c132.8,74.3,229.8,120.8,331.9,130.4"/>
							<path id="Path_3581_2_" class="st4" d="M1289.1,1119.8c23.1-101,45.4-239.8,109.5-330.9"/>
						</g>
					</g>
				</g>
			</g>
		</g>
	</g>
	<g id="Group_4631_1_" transform="translate(1107.514 970.701)">
		<path id="Path_3583_1_" class="st5" d="M1289.9,1125.4c-54.8,4.9-143.3,14.4-182.5-34.9c-12.5-15.8-18.1-35.8-22-55.6
			c-9.8-50.8-9.5-103.1,0.8-153.8c3.1-15.3,7.5-31,17.6-42.9s27.4-19,41.9-12.9c14.4,6.1,23.6,18,38.7,4.2
			c27-24.6,33.3-70.2,46.9-102.4c9.9-23.4,34.6-68.1,66.2-63c21.5,3.5,28.6,36.6,51.9,35.1c8.3-0.5,15.2-6.8,19.8-13.7
			c28.5-41.6,46.8-116.7,102.2-130.2c11.8-2.9,25.4-1.1,34,7.4c9,9,10.7,23.3,19.3,32.6c10.2,11.1,27.9,12.2,42,6.9
			s25.5-15.9,36.6-26c27.9-25.2,57.9-49.6,93.7-60.8c57.8-18,133.4,13,103.1,84.5c-11.8,27.9-42.4,42.1-70.8,52.3
			c-26.3,9.4-107.1,35.8-69.5,74.6c7.2,7.5,16.2,13.4,21.7,22.2c11.1,17.7,4.4,42.5-10.7,57s-36.4,20.5-57.1,23.1
			s-41.9,2.4-62.3,6.9c-15.1,3.3-32.4,13-31.6,28.5c0.8,16.1,20.1,24.1,27.9,38.1c8.9,15.8,0.9,36.8-13.1,48.4
			c-14,11.6-32.3,16-50,20.1l-52.6,12.2c-18.8,4.4-40.9,11.8-45.5,30.5c-2.8,11.4,2.1,23.2,3,34.9c1.7,23.2-13.3,45.3-33,57.7
			S1313.1,1123.3,1289.9,1125.4z"/>
		<g>
			<g>
				<defs>
					<path id="SVGID_3_" d="M1289.9,1125.4c-54.8,4.9-143.3,14.4-182.5-34.9c-12.5-15.8-18.1-35.8-22-55.6
						c-9.8-50.8-9.5-103.1,0.8-153.8c3.1-15.3,7.5-31,17.6-42.9s27.4-19,41.9-12.9c14.4,6.1,23.6,18,38.7,4.2
						c27-24.6,33.3-70.2,46.9-102.4c9.9-23.4,34.6-68.1,66.2-63c21.5,3.5,28.6,36.6,51.9,35.1c8.3-0.5,15.2-6.8,19.8-13.7
						c28.5-41.6,46.8-116.7,102.2-130.2c11.8-2.9,25.4-1.1,34,7.4c9,9,10.7,23.3,19.3,32.6c10.2,11.1,27.9,12.2,42,6.9
						s25.5-15.9,36.6-26c27.9-25.2,57.9-49.6,93.7-60.8c57.8-18,133.4,13,103.1,84.5c-11.8,27.9-42.4,42.1-70.8,52.3
						c-26.3,9.4-107.1,35.8-69.5,74.6c7.2,7.5,16.2,13.4,21.7,22.2c11.1,17.7,4.4,42.5-10.7,57s-36.4,20.5-57.1,23.1
						s-41.9,2.4-62.3,6.9c-15.1,3.3-32.4,13-31.6,28.5c0.8,16.1,20.1,24.1,27.9,38.1c8.9,15.8,0.9,36.8-13.1,48.4
						c-14,11.6-32.3,16-50,20.1l-52.6,12.2c-18.8,4.4-40.9,11.8-45.5,30.5c-2.8,11.4,2.1,23.2,3,34.9c1.7,23.2-13.3,45.3-33,57.7
						S1313.1,1123.3,1289.9,1125.4z"/>
				</defs>
				<clipPath id="SVGID_4_">
					<use xlink:href="#SVGID_3_"  style="overflow:visible;"/>
				</clipPath>
				<g id="Group_4630_1_" class="st6">
					<g id="Group_4629_1_" transform="translate(-14.863 -19.02)">
						<path id="Path_3584_1_" class="st7" d="M1864.7,513.5c-125.9,76.2-252.4,152.8-365.3,247.2c-26.3,22-51.8,44.9-77.2,67.8
							c-61.4,55.2-123.4,105.9-181,165.1c-63.8,65.7-126.2,132.8-187,201.4"/>
						<path id="Path_3585_1_" class="st7" d="M1335.6,591.9c-23.5,66-43.4,250.7-37,346.2c0,0,312.8,37,414.9-22.4"/>
						<path id="Path_3586_1_" class="st7" d="M1547,479.5c-49.8,93.7-94.7,322.2-94.7,322.2s257.8,3.9,334.9-19"/>
						<path id="Path_3587_1_" class="st8" d="M1139.3,784.5c-2.8,74.4-4.1,173,44.9,268.5c0,0,168.7,69.8,292.3,57.8"/>
					</g>
				</g>
			</g>
		</g>
	</g>
	<g id="Group_4632_1_" transform="translate(1117.797 844.363)">
		<path id="Path_3589_1_" class="st9" d="M1306.5,478.5c-70.6,106.3-243.7,521-284.7,792.6"/>
		<path id="Path_3590_1_" class="st9" d="M1333.1,402.3c6.4-15.5,13-31.4,23.8-44.3c6.5-7.8,21.5-19.9,32.6-13.7
			c33,18.2-37.2,91.1-49.1,102c-14.3,13.1-40.6,41.7-40.6,41.7S1321.6,430,1333.1,402.3z"/>
		<path id="Path_3591_1_" class="st9" d="M1329.9,505.7c11.3-6.6,22.8-13.2,35.6-16.1c7.7-1.7,22.6-2.1,26.6,6.9
			c11.8,26.8-65.9,38.7-78.4,39.9c-15,1.4-44.8,6.6-44.8,6.6S1309.8,517.4,1329.9,505.7z"/>
		<path id="Path_3592_1_" class="st9" d="M1242.9,476.4c-4.5-12.3-9.1-24.8-9.7-37.8c-0.4-7.9,1.9-22.7,11.4-25
			c28.5-7,26.6,71.7,25.6,84.2c-1.3,15-1.3,45.2-1.3,45.2S1250.9,498.3,1242.9,476.4z"/>
		<path id="Path_3593_1_" class="st9" d="M1290.2,582.7c10.9-7.2,22.1-14.5,34.6-18.1c7.6-2.2,22.5-3.4,27,5.4
			c13.3,26.1-63.7,42.3-76.1,44.1c-14.9,2.2-44.3,9.1-44.3,9.1S1270.8,595.5,1290.2,582.7z"/>
		<path id="Path_3594_1_" class="st9" d="M1201.7,558.2c-5.2-12-10.4-24.3-11.7-37.3c-0.8-7.9,0.6-22.7,10.1-25.6
			c28-8.5,30.5,70.1,30.2,82.7c-0.4,15.1,1.2,45.2,1.2,45.2S1210.9,579.6,1201.7,558.2z"/>
		<path id="Path_3595_1_" class="st9" d="M1256.2,674.6c12.5-8.4,25.2-17,39.6-21.4c8.7-2.6,25.8-4.2,31.1,5.8
			c15.7,29.8-72.6,49.7-86.9,52c-17.1,2.8-50.9,11.2-50.9,11.2S1234,689.7,1256.2,674.6z"/>
		<path id="Path_3596_1_" class="st9" d="M1153.9,648c-6.1-13.7-12.4-27.7-14.1-42.7c-1.1-9,0.3-26.2,11.1-29.6
			c32.1-10.3,36.3,80.2,36.1,94.6c-0.3,17.4,2.2,52,2.2,52S1164.8,672.4,1153.9,648z"/>
		<path id="Path_3597_1_" class="st9" d="M1214,773.5c12.1-9,24.4-18.1,38.6-23c8.6-3,25.6-5.3,31.3,4.5
			c17,29.1-70.5,52.7-84.6,55.6c-17,3.5-50.3,13.3-50.3,13.3S1192.5,789.5,1214,773.5z"/>
		<path id="Path_3598_1_" class="st9" d="M1110.7,751.2c-6.7-13.5-13.5-27.2-15.9-42c-1.4-9-0.8-26.2,9.9-30.1
			c31.6-11.6,39.7,78.6,40.1,93c0.5,17.4,4.3,51.9,4.3,51.9S1122.7,775.2,1110.7,751.2z"/>
		<path id="Path_3599_1_" class="st9" d="M1176.9,885c13.3-11,27-22.2,43-28.7c9.7-3.9,29.1-7.7,36.3,3.3
			c21.2,32.5-77.8,64.8-93.8,69c-19.3,5-57,18.3-57,18.3S1153.1,904.7,1176.9,885z"/>
		<path id="Path_3600_1_" class="st9" d="M1056.9,865.6c-8.5-15.1-17.2-30.4-20.8-47.3c-2.2-10.2-2.5-30,9.5-35.1
			c35.6-15.2,50.2,87.9,51.6,104.4c1.6,19.9,8.1,59.3,8.1,59.3S1072.1,892.4,1056.9,865.6z"/>
		<path id="Path_3601_1_" class="st9" d="M1134.3,1000.5c12.5-12,25.2-24.2,40.6-32c9.3-4.7,28.4-9.9,36.4,0.5
			c23.7,30.7-72.5,70.6-88.2,76c-18.9,6.5-55.4,22.7-55.4,22.7S1112.1,1021.9,1134.3,1000.5z"/>
		<path id="Path_3602_1_" class="st9" d="M1013.2,990.3c-9.7-14.4-19.5-29-24.4-45.6c-3-10-4.8-29.7,6.8-35.8
			c34.4-17.9,56.9,83.7,59.5,100.1c3.1,19.7,12.6,58.5,12.6,58.5S1030.4,1015.9,1013.2,990.3z"/>
	</g>
	<g id="Group_4636_1_" transform="translate(775.2 825.517)">
		<path id="Path_3603_1_" class="st2" d="M649.1,870.6l-97.9-47.5C492,616.7,466.3,404.9,428.4,312
			c18.4,13.4,223.8,172.6,340.5,290.6l-22.4,75.8l46-51.2c11.9,12.9,22.4,25.1,30.9,36.2c122.6,159.5,240.1,397.7,141.4,597
			c-41.4,83.7-128.2,29.6-179.9-12.4c-105-85.4-172.2-227.7-219.5-378L649.1,870.6z"/>
		<g>
			<g>
				<defs>
					<path id="SVGID_5_" d="M649.1,870.6l-97.9-47.5C492,616.7,466.3,404.9,428.4,312c18.4,13.4,223.8,172.6,340.5,290.6l-22.4,75.8
						l46-51.2c11.9,12.9,22.4,25.1,30.9,36.2c122.6,159.5,240.1,397.7,141.4,597c-41.4,83.7-128.2,29.6-179.9-12.4
						c-105-85.4-172.2-227.7-219.5-378L649.1,870.6z"/>
				</defs>
				<clipPath id="SVGID_6_">
					<use xlink:href="#SVGID_5_"  style="overflow:visible;"/>
				</clipPath>
				<g id="Group_4635_1_" class="st10">
					<g id="Group_4634_1_" transform="translate(-10.424 -4.861)">
						<path id="Path_3604_1_" class="st11" d="M608.7,564c-46.4-15.8-194.4-103.5-194.4-103.5"/>
						<g id="Group_4633_1_">
							<path id="Path_3605_1_" class="st11" d="M938.7,1374.8c-32.8-191.2-97.9-375.5-181.1-550.3C669,637.9,547.8,473.7,429.9,304"
								/>
							<path id="Path_3606_1_" class="st11" d="M686.5,689.9c25.2-79.8,45.5-243.7,45.5-243.7"/>
							<path id="Path_3607_1_" class="st11" d="M780.1,872.9c0,0,63.6-120.9,101.7-259.6"/>
							<path id="Path_3608_1_" class="st11" d="M745.3,799.2c-73.7-16.5-272.2-77.3-333.9-121.4"/>
							<path id="Path_3609_1_" class="st11" d="M850.9,1047.1c-149.6-31.6-253.6-60.7-337.2-121"/>
							<path id="Path_3610_1_" class="st11" d="M867.8,1095.7c49.3-91.7,124.3-211.3,136.1-322.6"/>
						</g>
					</g>
				</g>
			</g>
		</g>
	</g>
	<g id="Group_4639_1_" transform="translate(569.106 1094.918)">
		<path id="Path_3612_1_" class="st12" d="M683.8,1226.2c53.9-11.1,141.4-27.4,164.7-85.9c7.4-18.7,7.1-39.5,5.1-59.6
			c-5.2-51.5-20.5-101.4-45-147c-7.4-13.8-16.1-27.5-29.2-36s-31.7-10.3-43.8-0.3s-17.4,24-35.8,15.2c-33-15.8-52.1-57.7-74.4-84.5
			c-16.2-19.5-52.7-55.3-81.5-41.3c-19.6,9.6-16.8,43.3-39.6,48.5c-8.1,1.9-16.5-2.1-22.9-7.4c-39.3-31.7-78.4-98.3-135.3-95.3
			c-12.1,0.6-24.6,6.2-30.4,16.9c-6,11.2-3.5,25.4-9.1,36.8c-6.6,13.5-23.2,19.7-38.2,18.7c-15-1.1-28.9-7.9-42.6-14.3
			c-33.9-16.1-69.7-30.9-107.2-31.3c-60.5-0.6-124,50.8-74.4,110.6c19.3,23.3,52.7,28.2,82.9,29.7c27.9,1.5,112.9,3.4,88,51.5
			c-4.8,9.2-11.6,17.5-14.4,27.5c-5.5,20.2,8,41.9,26.6,51.5c18.6,9.5,40.8,9.1,61.4,5.7s40.8-9.7,61.7-11.3
			c15.4-1.2,34.7,3.2,38.5,18.2c3.9,15.6-12.3,28.8-15.8,44.5c-3.9,17.7,9.7,35.5,26.4,42.6c16.7,7.1,35.6,6,53.7,4.9l53.9-3.4
			c19.2-1.2,42.5-0.4,52.4,16.1c6,10.1,4.6,22.8,7.2,34.2c5,22.7,25.7,39.6,48.2,45.8S661,1230.9,683.8,1226.2z"/>
		<g>
			<g>
				<defs>
					<path id="SVGID_7_" d="M683.8,1226.2c53.9-11.1,141.4-27.4,164.7-85.9c7.4-18.7,7.1-39.5,5.1-59.6c-5.2-51.5-20.5-101.4-45-147
						c-7.4-13.8-16.1-27.5-29.2-36s-31.7-10.3-43.8-0.3s-17.4,24-35.8,15.2c-33-15.8-52.1-57.7-74.4-84.5
						c-16.2-19.5-52.7-55.3-81.5-41.3c-19.6,9.6-16.8,43.3-39.6,48.5c-8.1,1.9-16.5-2.1-22.9-7.4c-39.3-31.7-78.4-98.3-135.3-95.3
						c-12.1,0.6-24.6,6.2-30.4,16.9c-6,11.2-3.5,25.4-9.1,36.8c-6.6,13.5-23.2,19.7-38.2,18.7c-15-1.1-28.9-7.9-42.6-14.3
						c-33.9-16.1-69.7-30.9-107.2-31.3c-60.5-0.6-124,50.8-74.4,110.6c19.3,23.3,52.7,28.2,82.9,29.7c27.9,1.5,112.9,3.4,88,51.5
						c-4.8,9.2-11.6,17.5-14.4,27.5c-5.5,20.2,8,41.9,26.6,51.5c18.6,9.5,40.8,9.1,61.4,5.7s40.8-9.7,61.7-11.3
						c15.4-1.2,34.7,3.2,38.5,18.2c3.9,15.6-12.3,28.8-15.8,44.5c-3.9,17.7,9.7,35.5,26.4,42.6c16.7,7.1,35.6,6,53.7,4.9l53.9-3.4
						c19.2-1.2,42.5-0.4,52.4,16.1c6,10.1,4.6,22.8,7.2,34.2c5,22.7,25.7,39.6,48.2,45.8S661,1230.9,683.8,1226.2z"/>
				</defs>
				<clipPath id="SVGID_8_">
					<use xlink:href="#SVGID_7_"  style="overflow:visible;"/>
				</clipPath>
				<g id="Group_4638_1_" class="st13">
					<g id="Group_4637_1_" transform="translate(-22.871 -27.897)">
						<path id="Path_3613_1_" class="st7" d="M-10.9,811.1c142.5,36.7,285.7,73.6,420.9,131.6c31.5,13.5,62.5,28.1,93.5,42.7
							c74.7,35.2,148.7,65.8,220.8,106c80,44.6,159,90.9,237,139"/>
						<path id="Path_3614_1_" class="st7" d="M518.3,734c41.5,56.5,113.6,227.6,135,320.8c0,0-288.9,125.4-403.8,97.9"/>
						<path id="Path_3615_1_" class="st7" d="M283.6,687.1C358.3,762.5,467,968.3,467,968.3s-245.7,77.9-326.1,78.1"/>
						<path id="Path_3616_1_" class="st7" d="M761.7,861.9c24.1,70.4,53.7,164.5,34.2,270c0,0-141.5,115.3-263.2,139.4"/>
					</g>
				</g>
			</g>
		</g>
	</g>
	<g id="Group_4640_1_" transform="translate(636.16 947.064)">
		<path id="Path_3618_1_" class="st14" d="M267.6,589.2c106,71.1,425.2,387.4,567.5,622.3"/>
		<path id="Path_3619_1_" class="st14" d="M213.8,529.1c-11.9-11.9-24.1-23.9-39-31.7c-9-4.7-27.5-10.1-35.4-0.1
			c-23.5,29.5,69.4,69.8,84.5,75.3c18.2,6.6,53.5,22.9,53.5,22.9S235,550.3,213.8,529.1z"/>
		<path id="Path_3620_1_" class="st14" d="M256.4,623.3c-13-1.7-26.2-3.4-39-1.2c-7.8,1.3-21.7,6.7-21.9,16.6
			c-0.6,29.3,75.8,10.4,87.7,6.7c14.4-4.5,43.9-11.1,43.9-11.1S279.5,626.4,256.4,623.3z"/>
		<path id="Path_3621_1_" class="st14" d="M325.5,562.8c-0.6-13.1-1.2-26.4-5.6-38.6c-2.7-7.4-10.4-20.2-20.2-18.7
			c-28.9,4.5,3,76.4,8.7,87.6c6.9,13.4,18.6,41.3,18.6,41.3S326.5,586.1,325.5,562.8z"/>
		<path id="Path_3622_1_" class="st14" d="M322.7,679.2c-12.8-2.4-25.9-4.9-38.9-3.4c-7.8,0.9-22.1,5.5-22.8,15.4
			c-2.2,29.2,75.1,14.5,87.2,11.4c14.6-3.7,44.4-8.7,44.4-8.7S345.5,683.5,322.7,679.2z"/>
		<path id="Path_3623_1_" class="st14" d="M395,622.6c0.2-13.1,0.3-26.4-3.5-38.9c-2.3-7.6-9.3-20.8-19.1-19.8
			c-29.2,2.9-1.2,76.5,3.9,87.9c6.2,13.8,16.3,42.2,16.3,42.2S394.7,645.8,395,622.6z"/>
		<path id="Path_3624_1_" class="st14" d="M389.4,751c-14.7-3-29.8-6-44.7-4.5c-9,0.9-25.5,6-26.5,17.3c-3,33.6,86.1,18,100.2,14.7
			c16.9-4,51.3-9.2,51.3-9.2S415.7,756.3,389.4,751z"/>
		<path id="Path_3625_1_" class="st14" d="M473.6,687c0.4-15,0.8-30.4-3.3-44.8c-2.5-8.7-10.4-24-21.7-23.1
			c-33.6,2.8-2.7,88,3,101.2c6.9,15.9,18,48.9,18,48.9S472.9,713.8,473.6,687z"/>
		<path id="Path_3626_1_" class="st14" d="M466.3,826.1c-14.6-3.6-29.5-7.3-44.5-6.4c-9.1,0.5-25.7,4.9-27.2,16.2
			c-4.5,33.4,85.3,21.6,99.5,18.9c17-3.3,51.6-7.1,51.6-7.1S492.3,832.5,466.3,826.1z"/>
		<path id="Path_3627_1_" class="st14" d="M553.1,765.7c1-15,2-30.3-1.5-44.9c-2.1-8.8-9.3-24.5-20.7-24
			c-33.7,1.4-6.4,87.8-1.2,101.2c6.2,16.2,15.9,49.6,15.9,49.6S551.3,792.5,553.1,765.7z"/>
		<path id="Path_3628_1_" class="st14" d="M543.5,914.7c-16.6-5-33.4-10.1-50.7-10c-10.5,0.1-29.8,4.1-32.2,17
			c-7.1,38.1,96.7,29.9,113.1,27.6c19.8-2.8,59.7-5,59.7-5S572.9,923.7,543.5,914.7z"/>
		<path id="Path_3629_1_" class="st14" d="M646.8,850.6c2.1-17.2,4.2-34.7,1-51.7c-1.9-10.3-9.3-28.7-22.3-28.8
			c-38.8-0.4-12.6,100.4-7.5,116.2c6.2,19,15.3,57.9,15.3,57.9S643,881.2,646.8,850.6z"/>
		<path id="Path_3630_1_" class="st14" d="M627.1,1004.9c-16.1-6.3-32.5-12.7-49.8-13.9c-10.4-0.7-30.1,1.8-33.4,14.4
			c-10,37.5,94.1,37.3,110.7,36.3c19.9-1.2,59.9-0.4,59.9-0.4S655.8,1016.2,627.1,1004.9z"/>
		<path id="Path_3631_1_" class="st14" d="M735.1,949c3.4-17,6.8-34.3,5-51.5c-1.1-10.4-7-29.3-20-30.4
			c-38.6-3.4-20.3,99.2-16.4,115.3c4.7,19.4,10.8,58.9,10.8,58.9S729,979.2,735.1,949z"/>
	</g>
	<path id="Path_3632_1_" class="st15" d="M2918.7,2567.6c-161.5,62-339,63.1-512,63.4l-1086.1,1.7c-169.2,0.3-341.9,0-502.1-54.5
		c-38.1-13-76.6-29.9-102.7-60.6c-63.7-74.9-19.5-169.2,52.6-217.9c44.8-30.2,98.7-44.9,152.4-51c57.7-6.6,121-3.8,176.1-25.3
		c32.3-12.6,42.6-41.4,65.9-63.5c22-20.9,51.4-32.4,74.5-53.7c49.9-46.1,83.6-108.5,141.5-146.1c48-31.2,107.6-40.5,164.7-36.9
		c63.3,4.1,139.7,15.6,201,32.6c84.9,23.6,150.2,52.5,239.9,21.3c60.9-21.2,120.9-63.7,183.6-48.6c86,20.7,113.5,132.5,187.4,181.2
		c39.5,26,94.4,36.5,141.1,33.7c52.9-3.2,111.2-24.7,161.1,3.2c40,22.4,58.3,70,91.7,101.4c31.3,29.5,74,43.2,115.4,54.7
		s84.3,22.3,119,47.8C3092.7,2430.7,3013.4,2531.3,2918.7,2567.6z"/>
	<path id="Path_3633_1_" class="st2" d="M1117.7,1392.4c3.5,22.7,26.1,51.3,43.2,49c9.5-1.2,16.7-9.9,18.8-19.2s0-19-3-28.1
		c-6.4-19-35.1-44.2-54.8-21.4C1117.5,1377.6,1116.5,1384.6,1117.7,1392.4z"/>
	<path id="Path_3634_1_" class="st14" d="M2859.6,1435.8c21.8-7.2,46.2-34.2,41.2-50.7c-2.8-9.1-12.6-14.8-22.1-15.3
		s-18.8,3.2-27.2,7.6c-17.7,9.4-37.8,41.9-12.1,57.6C2845,1438.4,2852.1,1438.2,2859.6,1435.8z"/>
	<path id="Path_3635_1_" class="st14" d="M1030.4,1227c2.7,17.8,20.4,40.1,33.8,38.4c7.4-1,13.1-7.8,14.7-15.1
		c1.2-7.4,0.4-15-2.4-22c-5-14.9-27.5-34.6-42.9-16.8C1030.3,1215.4,1029.5,1220.9,1030.4,1227z"/>
	<path id="Path_3636_1_" class="st14" d="M2929.2,1694.1c17.9-1.1,41.8-16.7,41.3-30.2c-0.3-7.5-6.6-13.7-13.7-16
		c-7.3-1.9-14.9-1.7-22.1,0.4c-15.3,3.6-36.9,24.3-20.6,41.2C2917.6,1693.1,2923.1,1694.5,2929.2,1694.1z"/>
	<path id="Path_3637_1_" class="st14" d="M996,1326.2c1.9,12.3,14.2,27.8,23.4,26.6c5.2-1.1,9.2-5.2,10.2-10.4
		c0.8-5.1,0.3-10.4-1.7-15.2c-3.5-10.3-19.1-24-29.7-11.6C996,1318.6,995.2,1322.5,996,1326.2z"/>
	<path id="Path_3638_1_" class="st2" d="M2874.4,1783.6c12.3-2.2,27.4-15,25.9-24.2c-1.2-5.2-5.5-9.1-10.7-9.9
		c-5.2-0.7-10.4,0-15.2,2.1c-10.2,3.8-23.4,19.7-10.8,30C2866.8,1783.9,2870.7,1784.6,2874.4,1783.6z"/>
	<path id="Path_3639_1_" class="st2" d="M2359.6,1153c7-10.3,8.5-30,0.8-35.4c-4.6-2.7-10.3-2.4-14.6,0.8c-4.1,3.2-7.3,7.5-9.1,12.3
		c-4.5,9.9-2.3,30.5,13.9,28.7C2354.5,1158.6,2357.7,1156.3,2359.6,1153z"/>
	<rect id="Rectangle_1547_1_" x="567.1" y="2344.3" class="st16" width="2666" height="290.8"/>
	<g id="Group_4646_1_" transform="translate(664.717 680.873)">
		<path id="Path_3640_1_" class="st17" d="M2206.6,1756.2c0,38.6-421.3,69.8-941,69.8s-941-31.3-941-69.8s421.3-69.8,941-69.8
			S2206.6,1717.6,2206.6,1756.2z"/>
		<g id="Group_4645_1_" transform="translate(84.387)">
			<path id="Path_3641_1_" class="st18" d="M1514.1,888.8c-52.5,21.4-118.7,14.9-165.1-18c-46.6-33.2-89.4-57.5-148.6-59.3
				c-36.8-1.1-71.3,14.3-106.3,23.1c-30.8,7.7-54.4,32.5-87.6,37c-43.6,6-88.5-20.9-108.1-60.3c-19.6-39.5-15.3-88.5,6.6-126.8
				c16-27.9,30.8-48.7,12.8-79.8c-3.9-6.8-8.9-13-11.5-20.4c-2.3-7-3.2-14.5-2.6-21.9c1.6-40.3,32.1-70.5,52.5-103.7
				c4.8-7.8,9.5-15.8,11-24.8c3.7-22.9-14.5-42.7-24.2-63.8c-31.4-68.3,22.2-145.9,74.4-186.8c30.8-24.2,67.7-33.9,100.9-53.6
				c15.1-9,28.9-20.1,44.2-28.7c26.7-15.1,55.8-15.7,85.4-11.6c84.4,11.8,180.4,73.2,200,161.5c13.3,59.9-8.5,129.5,50.9,171.4
				c17.9,12.6,40.4,20.1,52.6,38.3c25.9,38.6-12.1,95.8,11.5,135.8c5.3,8.9,13.2,15.9,20.4,23.4c38.2,40.3,57.2,95,52.1,150.3
				c-1.3,13.3-4.1,26.7-10.7,38.3c-9,16-24.3,27.3-39.2,37.9c-22.3,15.9-45.1,31.7-70.5,42.2L1514.1,888.8z"/>
			<path id="Path_3642_1_" class="st19" d="M1590.6,665.2c-26.2-22.5-31.8-61.9-24.3-95.6c5-22.1,14.8-43.5,13.9-66.1
				c-1.6-29-20.2-54.3-47.5-64.4c-13.6-4.8-28.6-5.4-41.6-11.7c-19.7-9.4-30.6-29.3-37.8-48.9c-7.8-21.4-4.6-39.7-4.7-62.2
				c-0.1-28.7-0.8-57.4-3.8-86c-3.4-32.9-23.1-65.6-45.7-89.2c-3.2-3.4-6.6-6.7-10.1-9.8c-58.7-52.4-170.8-75.3-240.4-32.7
				c-13.9,8.5-22.5,20.2-33.5,31.5c-11.2,11.4-25.7,20.7-39.1,29.1c-27.3,17.1-56.6,30.6-85.5,44.9c-18.4,9.1-37.1,19-50.7,34.4
				c-16.3,18.6-23.5,44.2-22.8,68.9c0.7,24.8,8.9,48.9,20.2,70.9c8,15.6,17.7,30.4,22.8,47.2c8.3,27.3-7.6,52.9-27.7,70.4
				c-15.2,13.3-32.8,25.4-41.2,43.8c-6.9,15.6-6.3,33.5,1.6,48.6c7.4,13.8,20.5,24,27.5,38c6.7,13.7,6.8,29.7,0.5,43.6
				c-8.1,17.4-26.4,33.5-20.4,51.7"/>
			<path id="Path_3643_1_" class="st20" d="M1862.1,1473.4c-15.6,19.6-36,36.7-56.2,50.8c-110.2,76.8-241.8,129.4-372.3,163.2
				c-116.6,30.2-238.8,28.9-358,17.2c-81.5-8-162.6-33.3-241.2-56.7c-80.9-24.1-160.6-52.8-236-91
				c-59.4-30.1-112.6-67.4-121.6-138.5c-3.6-28,2.6-58.9,24-77.9c25.8-22.8,64.8-22.1,99.6-19.4c197,15.2,387.7,81.6,586.1,82.8
				c110.7,0.7,213.9-28.1,320.3-54.1c82-20.1,173.1-42.2,258.6-38C1842.7,1315.7,1919.3,1401.4,1862.1,1473.4z"/>
			<path id="Path_3644_1_" class="st21" d="M929.1,1307c-2.2-4.9-4.4-9.9-6.7-15.1c-24-53.8-41.6-110.3-52.3-168.2
				c-3.8-20.9-7.8-43.7-23.7-57.7c-22.1-19.4-65-16.9-92.4-13.2c-12.8,1.7-26.1,6.1-33.8,16.4c-12.8,17.1-11.5,55.7-12,76.3
				c-3.1,125.2,96,228.8,176.6,313.3c15.5,16.3,32.4,32.7,53.9,39.3c21.5,6.6,48.8-0.3,58.2-20.7c6.9-15,2.7-32.6-2.8-48.2
				c-9.4-26.8-23.5-51.3-39.6-74.6C944.4,1339.7,935.9,1323.7,929.1,1307z"/>
			<path id="Path_3645_1_" class="st20" d="M1402.8,626.4c3.6,21.8,0.5,44.2-8.8,64.2c-25.8,53.8-89.8,64.3-143.8,66.4
				c-20,0.8-40-0.3-59.8-3.2c-17.6-2.6-33.3,0.1-51.1-0.4c-35.4-0.8-69.9-11.2-99.9-30.1c-14.5-9.2-28.1-20.8-35.5-36.2
				c-10.2-21.2-7.2-46.3-1.8-69.2c2.7-13.3,7.4-26.2,13.8-38.2c7.3-12.6,17.7-23.3,23.8-36.5c11.4-24.9,2-53.9,12.2-78.3
				c7.9-19.1,27.9-40.7,44.4-52.6c22.5-16.2,51.6-21.4,79.3-19.5c27.7,1.9,54.5,10.2,80.9,18.9c20.8,6.8,38.6,2.6,53.9,19.8
				c12.1,13.6,7.9,35.8,11.7,52.3C1335,539.2,1394.1,568.4,1402.8,626.4z"/>
			<path id="Path_3646_1_" class="st22" d="M1020.7,872.7c-35.3,60.4-74.9,118.4-112.9,177.2c-21.2,32.8-42.6,66.2-54,103.6
				c-52.3-1.3-104.7-12.3-156.1-22.2c8.3-69.4,44.9-132.3,77.6-192.7c34.1-63,70.9-124.6,103-188.6c26.1-52.1,74.9-114.3,140.1-82.9
				c50.2,24.1,42.4,93.1,32,137.7C1044.9,828.4,1033.5,850.8,1020.7,872.7z"/>
			<path id="Path_3647_1_" class="st21" d="M1415.8,1307c2.2-4.9,4.4-9.9,6.7-15.1c24-53.8,41.6-110.3,52.3-168.2
				c3.8-20.9,7.8-43.7,23.7-57.7c22.1-19.4,65-16.9,92.4-13.2c12.8,1.7,26.1,6.1,33.8,16.4c12.8,17.1,11.5,55.7,12,76.3
				c3.1,125.2-96,228.8-176.6,313.3c-15.5,16.3-32.4,32.7-53.9,39.3c-21.5,6.6-48.8-0.3-58.2-20.7c-6.9-15-2.7-32.6,2.8-48.2
				c9.4-26.8,23.5-51.3,39.6-74.6C1400.4,1339.7,1408.9,1323.7,1415.8,1307z"/>
			<path id="Path_3648_1_" class="st22" d="M1324.1,872.7c35.3,60.4,74.9,118.4,112.9,177.2c21.2,32.8,42.6,66.2,54,103.6
				c52.3-1.3,104.7-12.3,156.1-22.2c-8.3-69.4-44.9-132.3-77.6-192.7c-34.1-63-70.9-124.6-103-188.6
				c-26.1-52.1-74.9-114.3-140.1-82.9c-50.2,24.1-42.4,93.1-32,137.7C1299.9,828.4,1311.4,850.8,1324.1,872.7z"/>
			<g id="Group_4642_1_" transform="translate(172.507 209.501)">
				<path id="Path_3649_1_" class="st23" d="M1261.2,1155.4c-14.5-38.6-36.4-70.3-49-110.2c-17.1-54.2-28.7-131.5-9.1-187.6
					c20.8-59.6,46.3-106.6,47.9-172.9c1.3-56.8-10.1-112.8-21.5-168.1c-11.3-54.8-16.4-70.7-70-79.1c-19.1-3-38-8.2-57.1-11.5
					c-32.4-5.6-65.2-8.4-98.1-8.4l0,0c-0.4,0-0.9,0-1.3,0c-0.4,0-0.9,0-1.3,0l0,0c-32.9-0.1-65.7,2.7-98.1,8.4
					c-19.1,3.4-38,8.6-57.1,11.5c-53.7,8.4-58.8,24.3-70,79.1C765.1,572,753.6,627.9,755,684.7c1.5,66.4,27.1,113.3,47.9,172.9
					c19.6,56.1,8,133.4-9.1,187.6c-12.6,39.9-34.4,71.6-49,110.2c-1.4,2.9-1.9,6.2-1.4,9.5c1.1,4,5.1,6.4,8.7,8.3
					c71.3,37.3,151.2,48.5,229.4,54.2c6.9,0.5,13.5,1,20.1,1.4v0.2c0.5,0,0.9-0.1,1.4-0.1s0.9,0.1,1.4,0.1v-0.2
					c6.6-0.4,13.3-0.9,20.1-1.4c78.2-5.8,158.1-17,229.4-54.2c3.6-1.9,7.5-4.3,8.7-8.3C1263.1,1161.7,1262.6,1158.3,1261.2,1155.4z"
					/>
				<g>
					<g>
						<defs>
							<path id="SVGID_9_" d="M1261.2,1155.4c-14.5-38.6-36.4-70.3-49-110.2c-17.1-54.2-28.7-131.5-9.1-187.6
								c20.8-59.6,46.3-106.6,47.9-172.9c1.3-56.8-10.1-112.8-21.5-168.1c-11.3-54.8-16.4-70.7-70-79.1c-19.1-3-38-8.2-57.1-11.5
								c-32.4-5.6-65.2-8.4-98.1-8.4l0,0c-0.4,0-0.9,0-1.3,0c-0.4,0-0.9,0-1.3,0l0,0c-32.9-0.1-65.7,2.7-98.1,8.4
								c-19.1,3.4-38,8.6-57.1,11.5c-53.7,8.4-58.8,24.3-70,79.1C765.1,572,753.6,627.9,755,684.7c1.5,66.4,27.1,113.3,47.9,172.9
								c19.6,56.1,8,133.4-9.1,187.6c-12.6,39.9-34.4,71.6-49,110.2c-1.4,2.9-1.9,6.2-1.4,9.5c1.1,4,5.1,6.4,8.7,8.3
								c71.3,37.3,151.2,48.5,229.4,54.2c6.9,0.5,13.5,1,20.1,1.4v0.2c0.5,0,0.9-0.1,1.4-0.1s0.9,0.1,1.4,0.1v-0.2
								c6.6-0.4,13.3-0.9,20.1-1.4c78.2-5.8,158.1-17,229.4-54.2c3.6-1.9,7.5-4.3,8.7-8.3
								C1263.1,1161.7,1262.6,1158.3,1261.2,1155.4z"/>
						</defs>
						<clipPath id="SVGID_10_">
							<use xlink:href="#SVGID_9_"  style="overflow:visible;"/>
						</clipPath>
						<g id="Group_4641_1_" class="st24">
							<path id="Path_3650_1_" class="st23" d="M1172.8,449.1c3.3-10.2,15.8-32.9,9.5-41.8c-6.3-9-29.8-7-39-6.7l-302.6,10.2
								c5.8,21.6,6.1,41.8,14.4,63.2c7,18.2,16.5,35.4,28.3,50.9c23.6,31,57.7,52.3,95.9,60c65,12.7,136.8-18.9,169.7-76.4
								C1159.5,489.8,1166.2,469.4,1172.8,449.1z"/>
						</g>
					</g>
				</g>
			</g>
			<path id="Path_3652_1_" class="st21" d="M1099.8,734c31.6,35.9,92.3,38.8,134.9,24.1c28.9-10,49.4-32.8,50-64.2
				c0.7-35.1-30.1-60-37.9-92.7c-4.4-18.5-4-37.6-3.5-56.5c0.5-22,0.7-44.1,1.8-66c-20.5-4.8-41.5-6.8-62.6-6
				c-19.1,0.8-38.3-1.2-57.4-0.1c-1.5-0.1-3.1,0.4-4.3,1.3c-1,1.2-1.5,2.6-1.4,4.1c-2.6,29.7,0,59.8-2.1,89.6
				c-1.8,27.3-8,54.9-24,77.5C1073.8,672.8,1078.6,709.9,1099.8,734z"/>
			<g id="Group_4644_1_" transform="translate(264.71 26.897)">
				<g id="Group_4643_1_">
					<path id="Path_3653_1_" class="st25" d="M893.3,133.3c16.1-8,33.8-12.5,51.8-13c18-0.6,36,1.3,53.5,5.5
						c35.4,7.9,67.9,25.7,93.6,51.3c26.1,25.6,43.1,59,48.6,95.1c2.5,18.1,1.6,36.1,2,53.9c0.3,17.7,1.8,35.7,9.1,51.4
						c7.4,15.7,20.3,28.4,34.6,38.7c14.3,10.4,30.2,18.6,45.5,28.1c7.5,4.7,15.6,9.7,21.2,17.6c5.6,8,6.8,17.8,6.9,26.8
						c0.1,9.2-1.1,18.3-3.5,27.1c-2.7,8.6-6,17-9.9,25.2c-3.7,7.9-5.4,16.5-4.8,25.2c1,8.7,3.5,17.2,7.4,25
						c7.6,16,16.9,31.4,24.6,47.6c8.1,16.1,13.2,33.6,15,51.5c1.6,17.9-0.7,36-6.6,53c5.5-17,7.3-35.1,5.4-52.9
						c-2.2-17.7-7.6-34.8-16-50.6c-7.9-16-17.4-31.2-25.3-47.4c-4.1-8.2-6.9-17-8-26.1c-0.7-9.3,0.9-18.6,4.7-27
						c3.7-8,6.9-16.3,9.4-24.8c2.2-8.5,3.3-17.2,3.2-26c-0.1-8.7-1.4-17.5-6.2-24.3c-4.8-6.9-12.4-11.6-20-16.2
						c-15.2-9.3-31.1-17.5-45.9-28.1c-14.7-10.5-28.3-23.6-36.3-40.4c-7.8-17-9.1-35.6-9.4-53.5c-0.3-18,0.7-35.9-1.7-53.3
						c-4.7-35.1-22.2-67.8-46.8-93.1c-25-25.5-56.7-43.4-91.4-51.6c-17.2-4.6-35-6.8-52.8-6.7C927.1,121.6,909.5,125.6,893.3,133.3z
						"/>
				</g>
			</g>
			<path id="Path_3654_1_" class="st26" d="M1245.6,596.8c-3.4-17.2-3.1-34.9-2.7-52.3c0.5-22,0.7-44.1,1.8-66
				c-20.5-4.8-41.5-6.8-62.6-6c-19.1,0.8-38.3-1.2-57.4-0.1c-1.5-0.1-3.1,0.4-4.3,1.3c-1,1.2-1.5,2.6-1.4,4.1
				c-2.6,29.7,0,59.8-2.1,89.6c-0.6,8.5-1.6,17-3.2,25.5c3,2.6,6.1,5.2,9.2,7.5c24.1,17.6,55,23.2,83.7,15.2
				C1220.6,611.6,1233.8,605.3,1245.6,596.8z"/>
			<path id="Path_3655_1_" class="st21" d="M1326.2,360.7c-0.2-27-4.6-53.9-12.8-79.6c-33.8-98.6-157.7-121.3-231-49.1
				c-81.8,80.5-47.4,269.6,41,334.9c24.1,17.6,55,23.2,83.7,15.2C1292.6,557.9,1328.1,451.8,1326.2,360.7z"/>
			<path id="Path_3656_1_" class="st18" d="M1348.8,448.2c7.9-6.3,13.9-14.6,17.4-24.2c10.7-31.3,9.5-65.9,8.2-99.5
				c-0.7-18.7-1.5-37.7-6.6-55.5c-5.8-19-15.6-36.6-28.7-51.5c-36.1-42.7-90.1-64.4-141.9-60c-20.8,1.8-36.1,11.8-54.4,20.2
				c-17.9,8.3-38.8,12.8-57.6,19c-21.7,7.1-44,14.6-61.2,29.6c-12.4,11.3-22,25.2-28.3,40.8c-7.8,18.4-8.6,38.9-6.4,58.5
				c1.8,16.2,4,33.4,11.1,48.5c6.7,14.1,21.7,23.4,35.1,30.4c-2-1.1-0.3-24.4-0.3-28c-0.3-20.6,0.8-41.8,7.3-61.5
				c6.2-19.3,18.6-31.1,34.6-42.8c6.6-4.5,12.7-9.7,18.2-15.5c2.7-3,14.4-16.6,12.5-20.9c9.1,20.1,23.4,40.7,41.2,53.9
				c33.9,25,71.6,42.7,109.9,57.6c2.8,1.1,5.7,2.2,8.5,3.3c10.5,4.2,20.9,9,29.5,16.9c19.3,17.6,20.7,44.6,20,68.9
				c-0.2,2.7,0,5.4,0.7,7.9C1321.8,456.4,1341.1,454.1,1348.8,448.2z"/>
			<path id="Path_3657_1_" class="st27" d="M815.4,1034.6l-6.1,14.6H1542l-7.4-16.4L815.4,1034.6z"/>
			<path id="Path_3658_1_" class="st21" d="M1173.1,1754c27.4,6.4,56.5,8.8,82.1,13.2c11.5,2,23.1,4,34.7,5.3
				c18.5,1.7,37.1,2.3,55.7,2l40.5,0.1c7.4,0,15-0.1,21.6-3.5c7.8-4.1,12.5-12.1,16.8-19.8c8.6-15.2,18.9-29.6,25.9-45.7
				c4.2-9.7,6-17.4,12.2-25.9c6-8.2,11.7-18.8,7.5-29c-5-12.1-20.6-15.1-33.6-15.3c-11-0.2-22,0.4-33,1.7
				c-43.3,5.3-84.6,22.4-128,27.2c-27.8,3.1-55.7,1.1-83.5-0.4c-22.2-1.2-56.2-6.9-76,5.9c-8.1,5.2-20.7,17.8-21.7,27.8
				c-1.2,12.5,12.8,25.6,21.7,32.2C1132.4,1742,1152.2,1749.2,1173.1,1754z"/>
			<path id="Path_3659_1_" class="st26" d="M1449.5,1707.5c0.3-0.6,0.6-1.2,0.8-1.8c4.2-9.7,6-17.4,12.2-25.9
				c6-8.2,11.7-18.8,7.5-29c-5-12.1-20.6-15.1-33.6-15.3c-11-0.2-22,0.4-33,1.7c-43.3,5.3-84.6,22.4-128,27.2
				c-22.8,2.5-45.7,1.6-68.5,0.4c-16.6,7.4-76.2,26.9-104.5,52.5c4,4.7,8.5,8.8,13.5,12.5c16.4,12.1,36.2,19.2,57.1,24.1
				c17.3,4,35.3,6.5,52.6,8.8c57.9-10.2,115-28.1,171.5-42.1C1414.6,1716.4,1432,1712,1449.5,1707.5z"/>
			<path id="Path_3660_1_" class="st27" d="M1491.4,1512.2H859.5l-45.3-470.4c-0.8-7.8,4.9-14.9,12.7-15.7c0.4,0,0.9-0.1,1.4-0.1
				h694.3c7.9,0.1,14.2,6.5,14.1,14.4c0,0.5,0,0.9-0.1,1.4L1491.4,1512.2z"/>
			<path id="Path_3661_1_" class="st28" d="M1267.7,1769.8c24.1-2.3,54.6-7.3,71.1-25.1c12.6-13.6,17.4-31.7,17.3-50.2
				c-0.1-18.1-14.2-32.4-30.4-40.6c42.2-21.9,81.7-22.1,119.9-7.5c4.3,1.6,8.3,3.7,12.2,6.2c51.4,32.9,17.4,97.1-24.8,119.8
				c-19.4,10.3-41.1,15.3-63,14.5c-17.6-0.6-29.3-2.6-46.8-4.7C1302.1,1779.7,1291.5,1774.6,1267.7,1769.8z"/>
			<path id="Path_3662_1_" class="st16" d="M1496.3,1525.5H854.6l-46-470.4c-0.8-7.9,5-14.9,12.9-15.7c0.5,0,0.9-0.1,1.4-0.1H1528
				c7.9,0,14.3,6.4,14.3,14.3c0,0.5,0,0.9-0.1,1.4L1496.3,1525.5z"/>
			<rect id="Rectangle_1548_1_" x="854.6" y="1525.5" class="st27" width="641.4" height="28.5"/>
			<circle id="Ellipse_647_1_" class="st27" cx="1175.5" cy="1282.4" r="44.5"/>
			<path id="Path_3663_1_" class="st21" d="M1025.9,1582.1c38,22.1,76.3,44.5,115.1,64.7c0.8,0.4,1.6,0.8,2.3,1.2
				c16.6,7.9,33.7,14.5,50.2,22.6c10.5,5.1,20.8,10.8,30.6,17.1c4.6,3,9.1,6.2,13.4,9.6c2.2,1.4,4.1,3.1,5.8,5.1
				c1.1,2.9,1,6.2-0.2,9c-1.1,2.6-2.7,5.1-4.7,7.1c-7.6,8.5-17.9,14.2-28.2,19.1c-6.4,3-12.8,5.9-19.4,8.5
				c-6.2,2.8-12.6,5.1-19.1,6.8c-3.3,0.2-6.6-0.1-9.8-0.9c-3.4-0.5-6.8-1-10.2-1.5c-6.8-1.1-13.6-2.3-20.4-3.6
				c-30.9-6-61.3-14.4-91.5-23.5c-29.9-9-59.6-18.6-89.7-27.2c-141.7-40.8-289.1-86.6-412.6-169.5c-28.4-19.2-57.1-47.5-69.2-80
				c-31.8-85.7,59.2-152,136.9-119.8c129.7,53.9,236.6,150.5,359,219.6C984.8,1558.1,1005.3,1570.1,1025.9,1582.1z"/>
			<path id="Path_3664_1_" class="st18" d="M1315.8,1722.2c28.6-8.6,56.9-17.7,85.2-25.9c141.7-40.8,289.1-86.6,412.6-169.5
				c28.4-19.2,57.1-47.5,69.2-80c31.8-85.7-59.2-152-136.9-119.8c-129.7,53.9-236.6,150.5-359,219.6c-20.4,11.5-40.9,23.5-61.6,35.5
				c-17.7,10.3-35.5,20.7-53.4,30.9"/>
			<path id="Path_3665_1_" class="st21" d="M1271.9,1613c-20.5,11.6-41,23.1-61.7,33.9c-21.2,11.1-146.1,54.2-112,99.3
				c6.7,8.9,19.4,9.9,30.5,10c63.9,0.6,126-15.5,187.1-34"/>
			<path id="Path_3666_1_" class="st26" d="M1141,1646.8c-11.6-6-23.1-12.3-34.6-18.7c-19.9,5.1-40.1,8.7-60.5,10.6
				c-43.5,3.3-87.2-5.8-130.8-3c-11,0.7-21.9,2.2-32.7,4.4c-12.8,2.6-27.5,8.5-30.2,21.2c-0.4,1.8-0.4,3.7-0.3,5.5
				c32.8,10.3,65.7,20,98.2,29.3c44.4,12.8,89.1,28,134.4,39.9l0.5-0.2c24.3-9.1,52.5-16.9,78.2-28.2c16.9-7,32.5-16.7,46.2-28.8
				C1181.6,1663.5,1150.6,1651.9,1141,1646.8z"/>
			<path id="Path_3667_1_" class="st18" d="M1035.5,1722.2c-28.6-8.6-56.9-17.7-85.2-25.9c-141.7-40.8-289.2-86.6-412.6-169.5
				c-28.4-19.2-57.1-47.5-69.2-80c-31.8-85.7,59.2-152,136.9-119.8c129.7,53.9,236.6,150.5,359,219.6c20.4,11.5,40.9,23.5,61.6,35.5
				c17.7,10.3,35.5,20.7,53.4,30.9"/>
			<path id="Path_3668_1_" class="st21" d="M1175.5,1754c-27.4,6.4-56.5,8.8-82.1,13.2c-11.5,2-23.1,4-34.7,5.3
				c-18.5,1.7-37.1,2.3-55.7,2l-40.5,0.1c-7.4,0-15-0.1-21.6-3.5c-7.8-4.1-12.5-12.1-16.8-19.8c-8.6-15.2-18.9-29.6-25.9-45.7
				c-4.6-10.5-9.4-20.8-3.2-31.8c3.3-5.2,7.4-9.9,12.3-13.7c5.9-5.3,12.4-9.8,19.4-13.5c23.2-11.7,46.8-4.8,70.5,1.3
				c25.1,6.4,50.1,13.6,75.8,16.5c27.8,3.1,55.7,1.1,83.5-0.4c22.2-1.2,56.2-6.9,76,5.9c8.1,5.2,20.7,17.8,21.7,27.8
				c1.2,12.5-12.8,25.6-21.7,32.2C1216.1,1742,1196.3,1749.2,1175.5,1754z"/>
			<path id="Path_3669_1_" class="st28" d="M1078,1769.8c-24.1-2.3-54.6-7.3-71.1-25.1c-12.6-13.6-17.4-31.7-17.3-50.2
				c0.1-18.1,14.2-32.4,30.4-40.6c-42.2-21.9-81.7-22.1-119.9-7.5c-4.3,1.6-8.3,3.7-12.2,6.2c-51.4,32.9-17.4,97.1,24.8,119.8
				c19.4,10.3,41.1,15.3,63,14.5c17.6-0.6,29.3-2.6,46.8-4.7C1043.6,1779.7,1054.2,1774.6,1078,1769.8z"/>
		</g>
	</g>
	<g id="Group_727_1_" transform="translate(1002.504 836.146)">
		<g id="Group_725_1_" transform="translate(0 27.226)">
			
				<ellipse id="Ellipse_51_1_" transform="matrix(0.9954 -9.603433e-02 9.603433e-02 0.9954 -33.504 88.688)" class="st29" cx="904.6" cy="392.4" rx="21.3" ry="16.8"/>
		</g>
		<g id="Group_726_1_" transform="translate(12.031)">
			<path id="Path_702_1_" class="st29" d="M930.7,423.2c-9.7,0.9-18.6,0.9-29.2,0.9v-8.9c111.6,4.4,196.7-85.1,197.6-85.9l7.1,6.2
				C1106.1,335.5,1031.7,413.4,930.7,423.2z"/>
		</g>
	</g>
	<g id="Group_729_1_" transform="translate(885.109 693.98)">
		<g id="Group_728_1_" transform="translate(59.325)">
			<path id="Path_703_1_" class="st30" d="M808.6,311.1c8.9-62,41.6-131.1,94.8-166.6c47.8-31.9,111.6-33.7,164.8-13.3
				c45.2,17.7,75.3,56.7,90.4,101.9c12.4,39,14.2,78,17.7,118.7c0.9,13.3,22.2,13.3,20.4,0c-2.7-38.1-4.4-76.2-15.1-113.4
				c-13.3-48.7-41.6-93-86.8-116.9c-54-29.2-124.9-31.9-180.7-6.2c-45.2,20.4-78,61.1-99.2,105.4c-12.4,26.6-23,99.3-27.5,129.4
				c-0.9,12.4,19.5,17.7,21.3,4.4L808.6,311.1z"/>
		</g>
		<ellipse id="Ellipse_52_1_" class="st30" cx="1234.7" cy="418.3" rx="70.9" ry="88.6"/>
		<ellipse id="Ellipse_53_1_" class="st31" cx="1246.2" cy="418.3" rx="67.3" ry="84.2"/>
		<g id="Group_4649_1_" transform="translate(0 84.747)">
			<g>
				<g>
					<defs>
						<path id="SVGID_11_" d="M907.8,247.8c0,0-4.8,57.9,26.6,142.4c0,0-43.4,62.7-48.3,65.2c-4.8,2.4-94.1-2.4-103.8-12.1
							c-9.6-9.7-91.7-154.5-91.7-156.9s41-45.9,55.5-48.3c14.5-2.4,115.8-2.4,115.8-2.4L907.8,247.8z"/>
					</defs>
					<clipPath id="SVGID_12_">
						<use xlink:href="#SVGID_11_"  style="overflow:visible;"/>
					</clipPath>
					<g id="Group_4648_1_" class="st32">
						<g id="Group_4647_1_" transform="translate(39.53 3.504)">
							<ellipse id="Ellipse_52-2_1_" class="st30" cx="825.9" cy="330" rx="70.9" ry="88.6"/>
							<ellipse id="Ellipse_53-2_1_" class="st33" cx="837.4" cy="330" rx="67.3" ry="84.2"/>
						</g>
					</g>
				</g>
			</g>
		</g>
	</g>
	<g id="Group_4650_1_" transform="translate(651.333 682.756)">
		<path id="Path_2252_1_" class="st34" d="M640.3,238.7L640.3,238.7c2.7-7.8,4.1-16,4.1-24.3V104.9c0-40.8-33.1-73.9-73.9-73.9H236
			c-40.8,0-73.9,33.1-73.9,73.9l0,0v109.4c0,40.8,33.1,73.9,73.9,73.9h334.5l65.6,35.9c6.4,3.5,14.4,1.2,17.9-5.2c1.5-2.8,2-6,1.3-9
			L640.3,238.7z"/>
		<line id="Line_87_1_" class="st35" x1="215.3" y1="122.5" x2="593.8" y2="122.5"/>
		<line id="Line_88_1_" class="st35" x1="215.3" y1="196.8" x2="384" y2="196.8"/>
	</g>
</g>
</svg>
